PathFileType	4	(X/Y/Z)	D:\Long Term Storage\D'Arcy Smith\Coord7.trc
DataRate	CameraRate	NumFrames	NumMarkers	Units	OrigDataRate	OrigDataStartFrame	OrigNumFrames
120.00	120.00	      146	4	mm	120.00	3645	      4859
Frame#	Time	M1			M2			M3			M4			
		X1	Y1	Z1	X2	Y2	Z2	X3	Y3	Z3	X4	Y4	Z4	

3645	30.367	1141.63647	364.85965	290.11414	1601.30933	315.35767	615.90033							
3646	30.375	1142.71545	368.64774	280.75604	1603.59924	322.50204	627.66492							
3647	30.383	1143.64917	372.44144	273.12766	1605.16321	329.47232	639.39417							
3648	30.392	1144.49207	376.10928	264.88824	1607.18860	337.01367	649.98047							
3649	30.400	1144.21362	378.98505	258.44537	1609.03796	344.68570	659.97363							
3650	30.408	1146.26013	383.55426	247.28535	1610.75244	352.32886	668.87427							
3651	30.417	1145.75928	385.72052	241.83269	1612.52783	359.77765	676.78912							
3652	30.425	1145.26770	387.66135	236.39066	1614.28198	367.12875	684.01007							
3653	30.433	1144.77185	390.06659	231.13802	1615.79846	374.26855	691.04425							
3654	30.442	1143.04773	390.26321	228.40819	1616.98560	380.71213	697.00787							
3655	30.450	1142.06055	390.58725	225.29120	1617.98462	386.79083	702.03168							
3656	30.458	1140.53137	390.16336	223.14500	1618.93372	392.19690	706.68976							
3657	30.467	1139.00391	389.18484	221.26570	1619.88818	396.89383	710.15881							
3658	30.475	1137.24951	387.52307	220.70810	1620.63428	400.75308	713.42920							
3659	30.483	1135.40039	385.13290	220.95622	1621.09924	403.70535	715.24652							
3660	30.492	1133.18286	382.03226	222.26317	1621.56226	406.03207	717.22083							
3661	30.500	1130.02869	378.30554	224.58568	1622.05042	407.98029	719.69714							
3662	30.508	1127.99109	374.12262	227.70728	1622.04993	408.43469	719.33362							
3663	30.517	1124.47498	368.29099	232.86528	1621.80249	407.95346	718.06592							
3664	30.525	1122.34912	362.93719	237.06325	1621.26819	406.62286	715.75940							
3665	30.533	1119.77026	356.88596	242.82057	1620.65881	404.34073	712.81073							
3666	30.542	1116.64575	349.73724	249.81378	1619.35828	400.80743	706.44116							
3667	30.550	1112.13892	342.75266	260.64001	1618.34204	397.07663	701.22113							
3668	30.558	1109.88354	336.05960	268.18439	1617.06982	392.48929	694.50409							
3669	30.567	1107.02478	328.98962	277.99481	1615.57947	387.62308	687.12665							
3670	30.575	1104.11462	321.81979	287.89185	1613.91260	381.83060	678.22638							
3671	30.583	1101.63525	314.67624	298.61337	1612.26379	376.00613	668.29102							
3672	30.592	1099.11194	307.92847	309.93991	1610.29956	369.52609	657.15051							
3673	30.600	1097.17957	301.06720	321.78751	1608.26404	363.06699	645.35272							
3674	30.608	1094.99280	294.38565	334.35715	1606.41040	356.66495	633.01703							
3675	30.617	1093.27954	288.48679	347.24210	1604.37769	350.62701	619.31085							
3676	30.625	1092.33496	283.20688	361.03726	1602.10474	344.58386	605.34686							
3677	30.633	1090.75195	278.22992	374.71909	1599.97375	338.87396	590.19415							
3678	30.642	1089.56812	273.98697	389.02676	1596.96118	333.84964	574.37781							
3679	30.650	1088.83948	271.07370	403.83841	1594.35706	328.91492	557.99176							
3680	30.658	1087.55798	269.57083	419.18137	1592.17737	324.30066	542.29620							
3681	30.667	1086.64050	268.20255	434.09946	1588.91040	320.36255	524.73035							
3682	30.675	1085.53979	267.71021	449.40009	1586.07312	317.05991	507.61755							
3683	30.683	1084.58533	268.30392	464.61023	1583.15662	314.14816	490.19598							
3684	30.692	1083.95911	269.53192	479.58066	1580.24377	311.80380	472.99905							
3685	30.700	1083.63696	271.64703	494.14865	1577.18494	310.28577	455.24835							
3686	30.708	1082.60742	274.65283	508.44836	1573.95313	309.50012	437.66510							
3687	30.717	1081.39893	278.00464	521.81018	1570.83423	309.15659	419.94803							
3688	30.725	1079.74109	281.88684	534.59967	1567.66101	309.79422	402.62616							
3689	30.733	1079.27747	286.04456	546.46393	1564.24670	310.84857	386.07260							
3690	30.742	1077.52332	290.52545	557.35889	1560.99329	312.52893	369.72336							
3691	30.750	1076.14038	294.94034	566.89392	1557.59045	314.81616	353.83029							
3692	30.758	1074.55969	299.08102	575.35443	1554.48315	317.93646	338.81082							
3693	30.767	1073.45056	303.08087	582.00067	1551.53650	321.29248	324.48553							
3694	30.775	1072.12439	306.57373	587.19196	1548.68311	324.87747	311.81387							
3695	30.783	1070.73108	309.51196	590.82031	1546.12427	328.43057	300.03860							
3696	30.792	1069.89063	312.12921	592.73218	1543.88586	332.12753	289.83835							
3697	30.800	1068.80261	314.06219	592.91241	1541.89832	335.70703	280.65472							
3698	30.808	1068.12085	315.35919	591.55847	1540.28040	339.16495	272.64587							
3699	30.817	1067.70032	315.89380	588.35162	1539.05701	342.07776	266.06656							
3700	30.825	1067.74146	315.93820	583.55542	1538.18945	344.58099	261.01123							
3701	30.833	1067.80310	315.57397	577.22522	1537.65002	346.32513	256.92810							
3702	30.842	1067.93982	314.94159	569.44116	1537.41968	347.30219	254.87485							
3703	30.850	1070.27942	313.99075	560.25763	1537.59094	347.73587	253.77905							
3704	30.858	1071.49976	313.14825	549.86230	1538.30798	347.27322	254.57512							
3705	30.867	1074.25269	312.46225	539.00659	1539.20361	345.93210	256.81406							
3706	30.875	1076.42676	312.03726	527.16748	1540.48071	343.82794	260.40704							
3707	30.883	1079.42285	312.14014	514.77606	1541.94775	340.92538	265.64456							
3708	30.892	1082.28577	312.62601	501.92389	1543.76318	337.27188	271.99518							
3709	30.900	1085.25366	313.48605	488.73557	1545.73425	333.17926	279.62457							
3710	30.908	1089.51697	314.92157	475.47672	1547.93982	328.56561	288.62485							
3711	30.917	1093.15283	316.86603	461.98447	1550.51025	323.52374	298.37820							
3712	30.925	1096.72754	319.93460	448.25998	1553.16113	318.81873	309.13031							
3713	30.933	1101.28394	322.15732	435.55182	1555.85291	313.37466	321.00284							
3714	30.942	1105.60852	325.51755	422.16486	1558.69885	307.99521	333.90866							
3715	30.950	1109.60059	329.22852	409.42096	1561.81946	302.61417	347.95627							
3716	30.958	1113.68689	333.24136	396.59756	1564.97864	297.72464	362.46530							
3717	30.967	1117.82275	336.86911	383.55090	1568.17456	293.22269	378.00797							
3718	30.975	1121.93933	341.01898	371.64810	1571.53882	289.50507	394.69174							
3719	30.983	1125.74976	345.06882	359.94107	1574.90234	286.63165	411.39282							
3720	30.992	1129.41858	349.76657	348.18820	1578.06543	285.05856	428.74811							
3721	31.000	1132.63904	354.11215	337.27444	1580.89893	284.46085	446.65887							
3722	31.008	1135.40479	358.46188	327.64008	1583.68750	284.69876	464.60181							
3723	31.017	1138.24304	362.86304	316.93839	1586.98865	286.38159	482.41568							
3724	31.025	1140.75867	367.18640	307.23276	1589.48010	289.10583	499.62164							
3725	31.033	1142.91064	371.37869	298.16135	1591.95386	292.60159	516.57910							
3726	31.042	1144.06287	374.50665	290.76178	1594.53577	296.95544	533.37970							
3727	31.050	1145.34326	378.72498	282.36166	1596.82654	302.22409	549.41382							
3728	31.058	1145.58386	382.02539	276.55508	1599.05688	307.81152	564.78406							
3729	31.067	1146.06250	384.85983	269.79373	1601.23401	314.23145	579.02740							
3730	31.075	1146.01709	387.31522	263.97720	1603.17358	320.79895	593.31433							
3731	31.083	1145.54163	389.24960	258.90170	1604.96729	327.78293	606.60547							
3732	31.092	1144.96606	391.94760	252.11205	1606.77026	334.86755	619.57782							
3733	31.100	1143.95520	392.75476	248.85089	1608.29150	341.91815	630.72516							
3734	31.108	1142.37073	393.31885	245.90239	1609.34814	348.52692	641.66010							
3735	31.117	1139.87830	392.91183	243.76944	1610.61523	355.42114	651.94281							
3736	31.125	1137.15051	392.13519	241.96397	1611.79016	361.94638	661.36041							
3737	31.133	1134.01135	390.72540	240.66174	1612.92212	368.18173	669.74579							
3738	31.142	1131.64575	389.18289	239.01740	1613.97192	374.02527	676.17047							
3739	31.150	1126.80920	386.88611	240.60240	1614.61072	379.31412	682.71484							
3740	31.158	1123.85901	383.80881	241.34633	1614.90710	384.20804	689.06586							
3741	31.167	1119.93408	379.85999	243.19545	1615.20251	388.48285	693.46710							
3742	31.175	1116.35852	375.68997	245.24225	1615.69019	391.99142	695.78314							
3743	31.183	1112.59668	370.72513	248.14169	1615.81580	394.71985	698.89648							
3744	31.192	1109.10242	365.43939	250.74782	1615.83582	396.55188	699.90326							
3745	31.200	1104.02600	358.30289	259.20029	1615.94482	397.62399	699.93390							
3746	31.208	1100.21277	351.83475	265.14377	1616.02844	397.65787	698.98499							
3747	31.217	1096.50793	344.39111	270.93860	1616.09290	396.70715	696.71240							
3748	31.225	1092.67798	336.92212	278.84558	1616.09290	395.09299	693.40607							
3749	31.233	1089.08911	329.09729	287.37537	1616.12170	392.28885	688.14868							
3750	31.242	1085.80627	321.33881	296.90335	1616.00464	388.80927	682.91583							
3751	31.250	1082.20386	313.48291	308.10437	1615.77075	384.58676	676.31476							
3752	31.258	1078.96936	306.06339	319.20135	1616.02515	380.05713	668.07928							
3753	31.267	1076.23792	299.25610	331.14456	1615.68481	374.85623	659.40930							
3754	31.275	1073.32678	292.55588	344.35434	1615.21143	369.24683	648.75232							
3755	31.283	1070.94971	286.30042	357.43933	1614.61987	363.31250	639.18164							
3756	31.292	1068.33533	280.86996	371.17130	1613.76355	357.46179	627.77881							
3757	31.300	1066.92236	276.24661	385.01038	1612.96997	351.56546	615.87115							
3758	31.308	1065.09961	272.11420	399.05487	1611.90930	345.83563	603.41162							
3759	31.317	1063.81152	269.07379	413.49448	1610.63940	340.29617	589.77844							
3760	31.325	1062.89929	267.10004	427.31995	1609.34766	335.24005	576.07715							
3761	31.333	1061.58972	265.91049	441.49484	1607.78064	330.53604	561.78168							
3762	31.342	1060.68542	266.00653	455.70676	1606.24011	326.35156	546.61066							
3763	31.350	1059.64746	266.66617	469.38141	1603.86877	322.90457	531.02087							
3764	31.358	1059.59778	267.68906	482.19781	1601.82239	319.85287	515.71405							
3765	31.367	1059.02075	269.25949	494.85416	1599.53406	317.38452	499.69534							
3766	31.375	1058.44751	271.54639	507.15717	1597.03271	315.65393	483.94760							
3767	31.383	1057.92957	274.40445	517.86658	1594.42163	314.11844	468.31842							
3768	31.392	1057.28748	277.12125	528.54321	1592.25452	313.22549	452.66284							
3769	31.400	1056.87854	279.97354	538.69012	1589.01355	312.96921	436.40277							
3770	31.408	1056.49719	283.16010	547.83844	1585.88293	313.00278	421.51691							
3771	31.417	1055.95813	286.16812	556.07898	1582.91992	313.37051	406.59164							
3772	31.425	1055.66199	288.94269	563.50275	1579.71497	314.16141	392.06097							
3773	31.433	1055.45435	291.11163	569.54755	1576.58875	315.12662	378.32504							
3774	31.442	1054.86084	293.73343	576.37152	1573.21204	316.55658	364.48508							
3775	31.450	1054.35193	295.55551	580.84283	1569.94336	318.16736	351.36023							
3776	31.458	1054.12939	297.34598	584.63104	1566.60339	319.78870	338.78763							
3777	31.467	1053.95117	298.56134	587.70514	1563.28101	321.74060	327.16696							
3778	31.475	1053.76135	299.85641	589.95081	1560.08044	323.74445	315.50555							
3779	31.483	1053.63550	300.73468	591.99469	1556.58777	325.70377	305.06729							
3780	31.492	1053.57263	301.33646	593.64948	1553.43457	327.67300	295.84802							
3781	31.500	1053.49048	301.85489	594.89453	1550.28601	330.01096	286.51392							
3782	31.508	1053.40710	302.33383	595.93713	1547.02271	331.85098	278.00699							
3783	31.517	1053.37415	302.93689	596.91180	1544.20691	333.88913	270.40732							
3784	31.525	1053.49158	303.82028	597.46100	1541.32288	335.60611	263.31561							
3785	31.533	1053.86536	304.95386	597.95618	1538.64856	337.20908	257.04782							
3786	31.542	1054.42615	306.10941	598.10620	1536.36914	338.37601	251.58679							
3787	31.550	1055.34705	307.64606	597.80389	1534.15918	339.44296	246.77187							
3788	31.558	1056.75452	309.30157	597.11176	1532.29565	339.88712	243.13956							
3789	31.567	1058.32703	310.93097	595.85413	1530.72302	340.07736	240.21088							
3790	31.575	1059.88745	312.73016	594.13000	1529.36206	339.64069	238.12007							
